# xmcd
#
# Track frame offsets: 
#        150
#        59215
#        75141
#        86921
#        108148
#        124174
#        147765
#        178556
#
# Disc length: 2597 seconds
#
# Revision: 0
# Processed by: cddbd v1.5.2PL0 Copyright (c) Steve Scherf et al.
# Submitted via: ExactAudioCopy v1.0b1
#
DISCID=640a2308
DTITLE=Jimi Hendrix  - Hell Fire Red - Disc 2
DYEAR=1900
DGENRE=
TTITLE0=Love Jam
TTITLE1=Love Jam
TTITLE2=She's So Fine
TTITLE3=Stop
TTITLE4=Message To Love
TTITLE5=Red House
TTITLE6=Purple Haze
TTITLE7=Fire
EXTD=
EXTT0=
EXTT1=
EXTT2=
EXTT3=
EXTT4=
EXTT5=
EXTT6=
EXTT7=
PLAYORDER=
